<svg width="20" height="21" viewBox="0 0 20 21" fill="none" xmlns="http://www.w3.org/2000/svg">
<path d="M10 2.56006C9.00544 3.55462 8.4467 4.90354 8.4467 6.31006C8.4467 7.71658 9.00544 9.0655 10 10.0601C10.9946 11.0546 12.3435 11.6134 13.75 11.6134C15.1565 11.6134 16.5054 11.0546 17.5 10.0601C17.5 11.5434 17.0601 12.9935 16.236 14.2268C15.4119 15.4602 14.2406 16.4215 12.8701 16.9892C11.4997 17.5568 9.99168 17.7053 8.53683 17.4159C7.08197 17.1266 5.7456 16.4123 4.6967 15.3634C3.64781 14.3145 2.9335 12.9781 2.64411 11.5232C2.35472 10.0684 2.50325 8.56038 3.07091 7.18993C3.63856 5.81949 4.59986 4.64815 5.83323 3.82404C7.0666 2.99993 8.51664 2.56006 10 2.56006Z" stroke="#9A9C9F" stroke-width="2" stroke-linecap="round" stroke-linejoin="round"/>
</svg>
